<svg class="svg-fill" xmlns="http://www.w3.org/2000/svg" viewBox="0 0 25 25">
<path fill="#fff" d="M20 22.494v1a.5.5 0 0 1-1 0v-1a.5.5 0 1 1 1 0zm-14.5-.5a.5.5 0 0 0-.5.5v1a.5.5 0 0 0 1 0v-1a.5.5 0 0 0-.5-.5zm7 1a10.924 10.924 0 0 1-2.494-.391l-.27 1.76a.528.528 0 0 0 .097.454.498.498 0 0 0 .387.183h4.56a.5.5 0 0 0 .49-.598l-.275-1.8a10.928 10.928 0 0 1-2.495.392zm9.06-7.44L18 11.995v9h2.5a1.5 1.5 0 0 0 1.5-1.5v-2.879a1.5 1.5 0 0 0-.44-1.06zM17 5.995v15a18.472 18.472 0 0 1-4 .974v-7.474a.5.5 0 0 0-1 0v7.474a18.47 18.47 0 0 1-4-.974v-15C8 3.67 11.553.244 12.5 0c.947.244 4.5 3.67 4.5 5.994zm-2.168 1.127A4.374 4.374 0 0 0 12.5 5.994a4.113 4.113 0 0 0-2.343 1.136.5.5 0 0 0 .686.729 3.213 3.213 0 0 1 1.657-.865 3.417 3.417 0 0 1 1.668.874.5.5 0 0 0 .664-.748zM3 16.614v2.88a1.5 1.5 0 0 0 1.5 1.5H7v-9l-3.56 3.56a1.5 1.5 0 0 0-.44 1.06z"></path>
</svg>