<svg xmlns="http://www.w3.org/2000/svg" viewBox="-20 -20 415 419" class="masters-svg svg-animation">
  <style>
    .svg-animation{opacity:0;transition:opacity 0.2s ease-out}.svg-animation,.svg-animation.in-view{opacity:1;transition:opacity 0.3s ease-in}.svg-animation *,.svg-animation.in-view *{animation-play-state:running}[class$="step-1"]{animation-duration:2s;animation-fill-mode:forwards;animation-iteration-count:1;animation-timing-function:ease-out;will-change:transform}[class$="step-2"]{animation-delay:1s;animation-fill-mode:both;animation-timing-function:linear;will-change:transform;animation-iteration-count:infinite}.masters-svg_main-group{isolation:isolate}.masters-svg_shape-1{fill:#e2231a;mix-blend-mode:multiply}.masters-svg_shape-2{mix-blend-mode:multiply;fill:#a1b1c8}.masters-svg_shape-3{mix-blend-mode:multiply;fill:#ac441e}.masters-svg_shape-4{fill:#ac441e}.masters-svg_shape-5{fill:#f18f4d}.masters-svg_shape-6{mix-blend-mode:multiply;fill:#f18f4d}.masters-svg_shape-7{mix-blend-mode:multiply;fill:#e04403}@-webkit-keyframes masters-svg_shape-1_scale_animation_step-1{0%{transform:translate3d(175px, 187px, 0) scale(0, 0) translate3d(-175px, -187px, 0)}14%{transform:translate3d(175px, 187px, 0) scale(0, 0) translate3d(-175px, -187px, 0)}93%{transform:translate3d(175px, 187px, 0) scale(1, 1) translate3d(-175px, -187px, 0)}100%{transform:translate3d(175px, 187px, 0) scale(1, 1) translate3d(-175px, -187px, 0)}}@keyframes masters-svg_shape-1_scale_animation_step-1{0%{transform:translate3d(175px, 187px, 0) scale(0, 0) translate3d(-175px, -187px, 0)}14%{transform:translate3d(175px, 187px, 0) scale(0, 0) translate3d(-175px, -187px, 0)}93%{transform:translate3d(175px, 187px, 0) scale(1, 1) translate3d(-175px, -187px, 0)}100%{transform:translate3d(175px, 187px, 0) scale(1, 1) translate3d(-175px, -187px, 0)}}.svg-animation .masters-svg_shape-1_scale_step-1,.svg-animation.in-view .masters-svg_shape-1_scale_step-1{animation-name:masters-svg_shape-1_scale_animation_step-1}.masters-svg_shape-1_scale_step-1{animation-name:none}@-webkit-keyframes masters-svg_shape-1_scale_animation_step-2{0%{transform:translate3d(175px, 187px, 0) scale(1, 1) translate3d(-175px, -187px, 0)}59%{transform:translate3d(175px, 187px, 0) scale(0.8, 0.8) translate3d(-175px, -187px, 0)}95%{transform:translate3d(175px, 187px, 0) scale(1, 1) translate3d(-175px, -187px, 0)}100%{transform:translate3d(175px, 187px, 0) scale(1, 1) translate3d(-175px, -187px, 0)}}@keyframes masters-svg_shape-1_scale_animation_step-2{0%{transform:translate3d(175px, 187px, 0) scale(1, 1) translate3d(-175px, -187px, 0)}59%{transform:translate3d(175px, 187px, 0) scale(0.8, 0.8) translate3d(-175px, -187px, 0)}95%{transform:translate3d(175px, 187px, 0) scale(1, 1) translate3d(-175px, -187px, 0)}100%{transform:translate3d(175px, 187px, 0) scale(1, 1) translate3d(-175px, -187px, 0)}}.svg-animation .masters-svg_shape-1_scale_step-2,.svg-animation.in-view .masters-svg_shape-1_scale_step-2{animation-name:masters-svg_shape-1_scale_animation_step-2}.masters-svg_shape-1_scale_step-2{animation-duration:9s}.masters-svg_shape-1_scale_step-2{animation-name:none}@-webkit-keyframes masters-svg_shape-1_rotate_animation_step-2{0%{transform:translate3d(175px, 187px, 0) rotate(0deg) translate3d(-175px, -187px, 0)}100%{transform:translate3d(175px, 187px, 0) rotate(360deg) translate3d(-175px, -187px, 0)}}@keyframes masters-svg_shape-1_rotate_animation_step-2{0%{transform:translate3d(175px, 187px, 0) rotate(0deg) translate3d(-175px, -187px, 0)}100%{transform:translate3d(175px, 187px, 0) rotate(360deg) translate3d(-175px, -187px, 0)}}.svg-animation .masters-svg_shape-1_rotate_step-2,.svg-animation.in-view .masters-svg_shape-1_rotate_step-2{animation-name:masters-svg_shape-1_rotate_animation_step-2}.masters-svg_shape-1_rotate_step-2{animation-duration:9s}.masters-svg_shape-1_rotate_step-2{animation-name:none}@-webkit-keyframes masters-svg_shape-2_scale_animation_step-1{8%{-webkit-transform:translate3d(169px, 198px, 0) scale(0, 0) translate3d(-169px, -198px, 0);transform:translate3d(169px, 198px, 0) scale(0, 0) translate3d(-169px, -198px, 0)}79%{-webkit-transform:translate3d(169px, 198px, 0) scale(1, 1) translate3d(-169px, -198px, 0);transform:translate3d(169px, 198px, 0) scale(1, 1) translate3d(-169px, -198px, 0)}0%{-webkit-transform:translate3d(169px, 198px, 0) scale(0, 0) translate3d(-169px, -198px, 0);transform:translate3d(169px, 198px, 0) scale(0, 0) translate3d(-169px, -198px, 0)}100%{-webkit-transform:translate3d(169px, 198px, 0) scale(1, 1) translate3d(-169px, -198px, 0);transform:translate3d(169px, 198px, 0) scale(1, 1) translate3d(-169px, -198px, 0)}}@keyframes masters-svg_shape-2_scale_animation_step-1{8%{-webkit-transform:translate3d(169px, 198px, 0) scale(0, 0) translate3d(-169px, -198px, 0);transform:translate3d(169px, 198px, 0) scale(0, 0) translate3d(-169px, -198px, 0)}79%{-webkit-transform:translate3d(169px, 198px, 0) scale(1, 1) translate3d(-169px, -198px, 0);transform:translate3d(169px, 198px, 0) scale(1, 1) translate3d(-169px, -198px, 0)}0%{-webkit-transform:translate3d(169px, 198px, 0) scale(0, 0) translate3d(-169px, -198px, 0);transform:translate3d(169px, 198px, 0) scale(0, 0) translate3d(-169px, -198px, 0)}100%{-webkit-transform:translate3d(169px, 198px, 0) scale(1, 1) translate3d(-169px, -198px, 0);transform:translate3d(169px, 198px, 0) scale(1, 1) translate3d(-169px, -198px, 0)}}.svg-animation .masters-svg_shape-2_scale_step-1,.svg-animation.in-view .masters-svg_shape-2_scale_step-1{animation-name:masters-svg_shape-2_scale_animation_step-1}.masters-svg_shape-2_scale_step-1{animation-name:none}@-webkit-keyframes masters-svg_shape-2_scale_animation_step-2{0%{transform:translate3d(169px, 198px, 0) scale(1, 1) translate3d(-169px, -198px, 0)}73%{transform:translate3d(169px, 198px, 0) scale(0.85, 0.85) translate3d(-169px, -198px, 0)}98%{transform:translate3d(169px, 198px, 0) scale(1, 1) translate3d(-169px, -198px, 0)}100%{transform:translate3d(169px, 198px, 0) scale(1, 1) translate3d(-169px, -198px, 0)}}@keyframes masters-svg_shape-2_scale_animation_step-2{0%{transform:translate3d(169px, 198px, 0) scale(1, 1) translate3d(-169px, -198px, 0)}73%{transform:translate3d(169px, 198px, 0) scale(0.85, 0.85) translate3d(-169px, -198px, 0)}98%{transform:translate3d(169px, 198px, 0) scale(1, 1) translate3d(-169px, -198px, 0)}100%{transform:translate3d(169px, 198px, 0) scale(1, 1) translate3d(-169px, -198px, 0)}}.svg-animation .masters-svg_shape-2_scale_step-2,.svg-animation.in-view .masters-svg_shape-2_scale_step-2{animation-name:masters-svg_shape-2_scale_animation_step-2}.masters-svg_shape-2_scale_step-2{animation-duration:8s}.masters-svg_shape-2_scale_step-2{animation-name:none}@-webkit-keyframes masters-svg_shape-2_rotate_animation_step-2{0%{transform:translate3d(169px, 198px, 0) rotate(0deg) translate3d(-169px, -198px, 0)}100%{transform:translate3d(169px, 198px, 0) rotate(360deg) translate3d(-169px, -198px, 0)}}@keyframes masters-svg_shape-2_rotate_animation_step-2{0%{transform:translate3d(169px, 198px, 0) rotate(0deg) translate3d(-169px, -198px, 0)}100%{transform:translate3d(169px, 198px, 0) rotate(360deg) translate3d(-169px, -198px, 0)}}.svg-animation .masters-svg_shape-2_rotate_step-2,.svg-animation.in-view .masters-svg_shape-2_rotate_step-2{animation-name:masters-svg_shape-2_rotate_animation_step-2}.masters-svg_shape-2_rotate_step-2{animation-duration:8s}.masters-svg_shape-2_rotate_step-2{animation-name:none}@-webkit-keyframes masters-svg_shape-3_scale_animation_step-1{0%{transform:translate3d(173px, 190px, 0) scale(0, 0) translate3d(-173px, -190px, 0)}18%{transform:translate3d(173px, 190px, 0) scale(0, 0) translate3d(-173px, -190px, 0)}97%{transform:translate3d(173px, 190px, 0) scale(1, 1) translate3d(-173px, -190px, 0)}100%{transform:translate3d(173px, 190px, 0) scale(1, 1) translate3d(-173px, -190px, 0)}}@keyframes masters-svg_shape-3_scale_animation_step-1{0%{transform:translate3d(173px, 190px, 0) scale(0, 0) translate3d(-173px, -190px, 0)}18%{transform:translate3d(173px, 190px, 0) scale(0, 0) translate3d(-173px, -190px, 0)}97%{transform:translate3d(173px, 190px, 0) scale(1, 1) translate3d(-173px, -190px, 0)}100%{transform:translate3d(173px, 190px, 0) scale(1, 1) translate3d(-173px, -190px, 0)}}.svg-animation .masters-svg_shape-3_scale_step-1,.svg-animation.in-view .masters-svg_shape-3_scale_step-1{animation-name:masters-svg_shape-3_scale_animation_step-1}.masters-svg_shape-3_scale_step-1{animation-name:none}@-webkit-keyframes masters-svg_shape-3_scale_animation_step-2{0%{transform:translate3d(173px, 190px, 0) scale(1, 1) translate3d(-173px, -190px, 0)}41%{transform:translate3d(173px, 190px, 0) scale(1.09, 1.09) translate3d(-173px, -190px, 0)}100%{transform:translate3d(173px, 190px, 0) scale(1, 1) translate3d(-173px, -190px, 0)}}@keyframes masters-svg_shape-3_scale_animation_step-2{0%{transform:translate3d(173px, 190px, 0) scale(1, 1) translate3d(-173px, -190px, 0)}41%{transform:translate3d(173px, 190px, 0) scale(1.09, 1.09) translate3d(-173px, -190px, 0)}100%{transform:translate3d(173px, 190px, 0) scale(1, 1) translate3d(-173px, -190px, 0)}}.svg-animation .masters-svg_shape-3_scale_step-2,.svg-animation.in-view .masters-svg_shape-3_scale_step-2{animation-name:masters-svg_shape-3_scale_animation_step-2}.masters-svg_shape-3_scale_step-2{animation-duration:9s}.masters-svg_shape-3_scale_step-2{animation-name:none}@-webkit-keyframes masters-svg_shape-3_rotate_animation_step-2{0%{transform:translate3d(173px, 190px, 0) rotate(0deg) translate3d(-173px, -190px, 0)}100%{transform:translate3d(173px, 190px, 0) rotate(360deg) translate3d(-173px, -190px, 0)}}@keyframes masters-svg_shape-3_rotate_animation_step-2{0%{transform:translate3d(173px, 190px, 0) rotate(0deg) translate3d(-173px, -190px, 0)}100%{transform:translate3d(173px, 190px, 0) rotate(360deg) translate3d(-173px, -190px, 0)}}.svg-animation .masters-svg_shape-3_rotate_step-2,.svg-animation.in-view .masters-svg_shape-3_rotate_step-2{animation-name:masters-svg_shape-3_rotate_animation_step-2}.masters-svg_shape-3_rotate_step-2{animation-duration:9s}.masters-svg_shape-3_rotate_step-2{animation-name:none}@-webkit-keyframes masters-svg_shape-4_scale_animation_step-1{0%{transform:translate3d(204px, 193px, 0) scale(0, 0) translate3d(-204px, -193px, 0)}26%{transform:translate3d(204px, 193px, 0) scale(0, 0) translate3d(-204px, -193px, 0)}96%{transform:translate3d(204px, 193px, 0) scale(1, 1) translate3d(-204px, -193px, 0)}100%{transform:translate3d(204px, 193px, 0) scale(1, 1) translate3d(-204px, -193px, 0)}}@keyframes masters-svg_shape-4_scale_animation_step-1{0%{transform:translate3d(204px, 193px, 0) scale(0, 0) translate3d(-204px, -193px, 0)}26%{transform:translate3d(204px, 193px, 0) scale(0, 0) translate3d(-204px, -193px, 0)}96%{transform:translate3d(204px, 193px, 0) scale(1, 1) translate3d(-204px, -193px, 0)}100%{transform:translate3d(204px, 193px, 0) scale(1, 1) translate3d(-204px, -193px, 0)}}.svg-animation .masters-svg_shape-4_scale_step-1,.svg-animation.in-view .masters-svg_shape-4_scale_step-1{animation-name:masters-svg_shape-4_scale_animation_step-1}.masters-svg_shape-4_scale_step-1{animation-name:none}@-webkit-keyframes masters-svg_shape-4_scale_animation_step-2{0%{transform:translate3d(204px, 193px, 0) scale(1, 1) translate3d(-204px, -193px, 0)}5%{transform:translate3d(204px, 193px, 0) scale(1, 1) translate3d(-204px, -193px, 0)}31%{transform:translate3d(204px, 193px, 0) scale(0.86, 0.86) translate3d(-204px, -193px, 0)}71%{transform:translate3d(204px, 193px, 0) scale(0.96, 0.96) translate3d(-204px, -193px, 0)}98%{transform:translate3d(204px, 193px, 0) scale(1, 1) translate3d(-204px, -193px, 0)}100%{transform:translate3d(204px, 193px, 0) scale(1, 1) translate3d(-204px, -193px, 0)}}@keyframes masters-svg_shape-4_scale_animation_step-2{0%{transform:translate3d(204px, 193px, 0) scale(1, 1) translate3d(-204px, -193px, 0)}5%{transform:translate3d(204px, 193px, 0) scale(1, 1) translate3d(-204px, -193px, 0)}31%{transform:translate3d(204px, 193px, 0) scale(0.86, 0.86) translate3d(-204px, -193px, 0)}71%{transform:translate3d(204px, 193px, 0) scale(0.96, 0.96) translate3d(-204px, -193px, 0)}98%{transform:translate3d(204px, 193px, 0) scale(1, 1) translate3d(-204px, -193px, 0)}100%{transform:translate3d(204px, 193px, 0) scale(1, 1) translate3d(-204px, -193px, 0)}}.svg-animation .masters-svg_shape-4_scale_step-2,.svg-animation.in-view .masters-svg_shape-4_scale_step-2{animation-name:masters-svg_shape-4_scale_animation_step-2}.masters-svg_shape-4_scale_step-2{animation-duration:8s}.masters-svg_shape-4_scale_step-2{animation-name:none}@-webkit-keyframes masters-svg_shape-4_rotate_animation_step-2{0%{transform:translate3d(204px, 194px, 0) rotate(0deg) translate3d(-204px, -194px, 0)}100%{transform:translate3d(204px, 194px, 0) rotate(360deg) translate3d(-204px, -194px, 0)}}@keyframes masters-svg_shape-4_rotate_animation_step-2{0%{transform:translate3d(204px, 194px, 0) rotate(0deg) translate3d(-204px, -194px, 0)}100%{transform:translate3d(204px, 194px, 0) rotate(360deg) translate3d(-204px, -194px, 0)}}.svg-animation .masters-svg_shape-4_rotate_step-2,.svg-animation.in-view .masters-svg_shape-4_rotate_step-2{animation-name:masters-svg_shape-4_rotate_animation_step-2}.masters-svg_shape-4_rotate_step-2{animation-duration:9s}.masters-svg_shape-4_rotate_step-2{animation-name:none}@-webkit-keyframes masters-svg_shape-5_scale_animation_step-1{14%{transform:translate3d(198px, 188px, 0) scale(0, 0) translate3d(-198px, -188px, 0)}83%{transform:translate3d(198px, 188px, 0) scale(1, 1) translate3d(-198px, -188px, 0)}0%{transform:translate3d(198px, 188px, 0) scale(0, 0) translate3d(-198px, -188px, 0)}100%{transform:translate3d(198px, 188px, 0) scale(1, 1) translate3d(-198px, -188px, 0)}}@keyframes masters-svg_shape-5_scale_animation_step-1{14%{transform:translate3d(198px, 188px, 0) scale(0, 0) translate3d(-198px, -188px, 0)}83%{transform:translate3d(198px, 188px, 0) scale(1, 1) translate3d(-198px, -188px, 0)}0%{transform:translate3d(198px, 188px, 0) scale(0, 0) translate3d(-198px, -188px, 0)}100%{transform:translate3d(198px, 188px, 0) scale(1, 1) translate3d(-198px, -188px, 0)}}.svg-animation .masters-svg_shape-5_scale_step-1,.svg-animation.in-view .masters-svg_shape-5_scale_step-1{animation-name:masters-svg_shape-5_scale_animation_step-1}.masters-svg_shape-5_scale_step-1{animation-name:none}@-webkit-keyframes masters-svg_shape-5_scale_animation_step-2{0%{transform:translate3d(198px, 188px, 0) scale(1, 1) translate3d(-198px, -188px, 0)}16%{transform:translate3d(198px, 188px, 0) scale(1, 1) translate3d(-198px, -188px, 0)}47%{transform:translate3d(198px, 188px, 0) scale(0.7, 0.7) translate3d(-198px, -188px, 0)}95%{transform:translate3d(198px, 188px, 0) scale(1, 1) translate3d(-198px, -188px, 0)}100%{transform:translate3d(198px, 188px, 0) scale(1, 1) translate3d(-198px, -188px, 0)}}@keyframes masters-svg_shape-5_scale_animation_step-2{0%{transform:translate3d(198px, 188px, 0) scale(1, 1) translate3d(-198px, -188px, 0)}16%{transform:translate3d(198px, 188px, 0) scale(1, 1) translate3d(-198px, -188px, 0)}47%{transform:translate3d(198px, 188px, 0) scale(0.7, 0.7) translate3d(-198px, -188px, 0)}95%{transform:translate3d(198px, 188px, 0) scale(1, 1) translate3d(-198px, -188px, 0)}100%{transform:translate3d(198px, 188px, 0) scale(1, 1) translate3d(-198px, -188px, 0)}}.svg-animation .masters-svg_shape-5_scale_step-2,.svg-animation.in-view .masters-svg_shape-5_scale_step-2{animation-name:masters-svg_shape-5_scale_animation_step-2}.masters-svg_shape-5_scale_step-2{animation-duration:8s}.masters-svg_shape-5_scale_step-2{animation-name:none}@-webkit-keyframes masters-svg_shape-5_rotate_animation_step-2{0%{transform:translate3d(198px, 188px, 0) rotate(0deg) translate3d(-198px, -188px, 0)}10%{transform:translate3d(198px, 188px, 0) rotate(0deg) translate3d(-198px, -188px, 0)}100%{transform:translate3d(198px, 188px, 0) rotate(360deg) translate3d(-198px, -188px, 0)}}@keyframes masters-svg_shape-5_rotate_animation_step-2{0%{transform:translate3d(198px, 188px, 0) rotate(0deg) translate3d(-198px, -188px, 0)}10%{transform:translate3d(198px, 188px, 0) rotate(0deg) translate3d(-198px, -188px, 0)}100%{transform:translate3d(198px, 188px, 0) rotate(360deg) translate3d(-198px, -188px, 0)}}.svg-animation .masters-svg_shape-5_rotate_step-2,.svg-animation.in-view .masters-svg_shape-5_rotate_step-2{animation-name:masters-svg_shape-5_rotate_animation_step-2}.masters-svg_shape-5_rotate_step-2{animation-duration:8s}.masters-svg_shape-5_rotate_step-2{animation-name:none}@-webkit-keyframes masters-svg_shape-6_scale_animation_step-1{4%{transform:translate3d(173px, 193px, 0) scale(0, 0) translate3d(-173px, -193px, 0)}91%{transform:translate3d(173px, 193px, 0) scale(1, 1) translate3d(-173px, -193px, 0)}0%{transform:translate3d(173px, 193px, 0) scale(0, 0) translate3d(-173px, -193px, 0)}100%{transform:translate3d(173px, 193px, 0) scale(1, 1) translate3d(-173px, -193px, 0)}}@keyframes masters-svg_shape-6_scale_animation_step-1{4%{transform:translate3d(173px, 193px, 0) scale(0, 0) translate3d(-173px, -193px, 0)}91%{transform:translate3d(173px, 193px, 0) scale(1, 1) translate3d(-173px, -193px, 0)}0%{transform:translate3d(173px, 193px, 0) scale(0, 0) translate3d(-173px, -193px, 0)}100%{transform:translate3d(173px, 193px, 0) scale(1, 1) translate3d(-173px, -193px, 0)}}.svg-animation .masters-svg_shape-6_scale_step-1,.svg-animation.in-view .masters-svg_shape-6_scale_step-1{animation-name:masters-svg_shape-6_scale_animation_step-1}.masters-svg_shape-6_scale_step-1{animation-name:none}@-webkit-keyframes masters-svg_shape-6_scale_animation_step-2{0%{transform:translate3d(173px, 193px, 0) scale(1, 1) translate3d(-173px, -193px, 0)}24%{transform:translate3d(173px, 193px, 0) scale(0.79, 0.79) translate3d(-173px, -193px, 0)}35%{transform:translate3d(173px, 193px, 0) scale(0.85, 0.85) translate3d(-173px, -193px, 0)}99%{transform:translate3d(173px, 193px, 0) scale(1, 1) translate3d(-173px, -193px, 0)}100%{transform:translate3d(173px, 193px, 0) scale(1, 1) translate3d(-173px, -193px, 0)}}@keyframes masters-svg_shape-6_scale_animation_step-2{0%{transform:translate3d(173px, 193px, 0) scale(1, 1) translate3d(-173px, -193px, 0)}24%{transform:translate3d(173px, 193px, 0) scale(0.79, 0.79) translate3d(-173px, -193px, 0)}35%{transform:translate3d(173px, 193px, 0) scale(0.85, 0.85) translate3d(-173px, -193px, 0)}99%{transform:translate3d(173px, 193px, 0) scale(1, 1) translate3d(-173px, -193px, 0)}100%{transform:translate3d(173px, 193px, 0) scale(1, 1) translate3d(-173px, -193px, 0)}}.svg-animation .masters-svg_shape-6_scale_step-2,.svg-animation.in-view .masters-svg_shape-6_scale_step-2{animation-name:masters-svg_shape-6_scale_animation_step-2}.masters-svg_shape-6_scale_step-2{animation-duration:8s}.masters-svg_shape-6_scale_step-2{animation-name:none}@-webkit-keyframes masters-svg_shape-6_rotate_animation_step-2{0%{transform:translate3d(173px, 193px, 0) rotate(0deg) translate3d(-173px, -193px, 0)}100%{transform:translate3d(173px, 193px, 0) rotate(360deg) translate3d(-173px, -193px, 0)}}@keyframes masters-svg_shape-6_rotate_animation_step-2{0%{transform:translate3d(173px, 193px, 0) rotate(0deg) translate3d(-173px, -193px, 0)}100%{transform:translate3d(173px, 193px, 0) rotate(360deg) translate3d(-173px, -193px, 0)}}.svg-animation .masters-svg_shape-6_rotate_step-2,.svg-animation.in-view .masters-svg_shape-6_rotate_step-2{animation-name:masters-svg_shape-6_rotate_animation_step-2}.masters-svg_shape-6_rotate_step-2{animation-duration:9s}.masters-svg_shape-6_rotate_step-2{animation-name:none}@-webkit-keyframes masters-svg_shape-7_scale_animation_step-1{9%{transform:translate3d(183px, 190px, 0) scale(0, 0) translate3d(-183px, -190px, 0)}80%{transform:translate3d(183px, 190px, 0) scale(1, 1) translate3d(-183px, -190px, 0)}0%{transform:translate3d(183px, 190px, 0) scale(0, 0) translate3d(-183px, -190px, 0)}100%{transform:translate3d(183px, 190px, 0) scale(1, 1) translate3d(-183px, -190px, 0)}}@keyframes masters-svg_shape-7_scale_animation_step-1{9%{transform:translate3d(183px, 190px, 0) scale(0, 0) translate3d(-183px, -190px, 0)}80%{transform:translate3d(183px, 190px, 0) scale(1, 1) translate3d(-183px, -190px, 0)}0%{transform:translate3d(183px, 190px, 0) scale(0, 0) translate3d(-183px, -190px, 0)}100%{transform:translate3d(183px, 190px, 0) scale(1, 1) translate3d(-183px, -190px, 0)}}.svg-animation .masters-svg_shape-7_scale_step-1,.svg-animation.in-view .masters-svg_shape-7_scale_step-1{animation-name:masters-svg_shape-7_scale_animation_step-1}.masters-svg_shape-7_scale_step-1{animation-name:none}@-webkit-keyframes masters-svg_shape-7_scale_animation_step-2{0%{transform:translate3d(183px, 190px, 0) scale(1, 1) translate3d(-183px, -190px, 0)}52%{transform:translate3d(183px, 190px, 0) scale(0.81, 0.81) translate3d(-183px, -190px, 0)}98%{transform:translate3d(183px, 190px, 0) scale(1, 1) translate3d(-183px, -190px, 0)}100%{transform:translate3d(183px, 190px, 0) scale(1, 1) translate3d(-183px, -190px, 0)}}@keyframes masters-svg_shape-7_scale_animation_step-2{0%{transform:translate3d(183px, 190px, 0) scale(1, 1) translate3d(-183px, -190px, 0)}52%{transform:translate3d(183px, 190px, 0) scale(0.81, 0.81) translate3d(-183px, -190px, 0)}98%{transform:translate3d(183px, 190px, 0) scale(1, 1) translate3d(-183px, -190px, 0)}100%{transform:translate3d(183px, 190px, 0) scale(1, 1) translate3d(-183px, -190px, 0)}}.svg-animation .masters-svg_shape-7_scale_step-2,.svg-animation.in-view .masters-svg_shape-7_scale_step-2{animation-name:masters-svg_shape-7_scale_animation_step-2}.masters-svg_shape-7_scale_step-2{animation-duration:8s}.masters-svg_shape-7_scale_step-2{animation-name:none}@-webkit-keyframes masters-svg_shape-7_rotate_animation_step-2{0%{transform:translate3d(183px, 190px, 0) rotate(0deg) translate3d(-183px, -190px, 0)}100%{transform:translate3d(183px, 190px, 0) rotate(360deg) translate3d(-183px, -190px, 0)}}@keyframes masters-svg_shape-7_rotate_animation_step-2{0%{transform:translate3d(183px, 190px, 0) rotate(0deg) translate3d(-183px, -190px, 0)}100%{transform:translate3d(183px, 190px, 0) rotate(360deg) translate3d(-183px, -190px, 0)}}.svg-animation .masters-svg_shape-7_rotate_step-2,.svg-animation.in-view .masters-svg_shape-7_rotate_step-2{animation-name:masters-svg_shape-7_rotate_animation_step-2}.masters-svg_shape-7_rotate_step-2{animation-duration:8s}.masters-svg_shape-7_rotate_step-2{animation-name:none}

  </style>
  <g class="masters-svg_main-group">
    <g class="masters-svg_shape-1_rotate_step-2">
      <g class="masters-svg_shape-1_scale_step-2">
        <g class="masters-svg_shape-1_scale_step-1">
          <path class="masters-svg_shape-1" d="M341.2,217.62C340.28,180.15,328,142,310.3,109.11c-17-31.54-41.65-59.45-73.08-77.14C179.7-.44,107.47,11.36,59.19,55.16,7.46,102.09-4.24,180.53,21.61,243.85,51.17,316.26,127.25,360.42,204,361c5.76,0,6.63-7.51,2.64-9.86,34-8.11,68-18.2,95.28-41C329.63,286.91,342.06,253.31,341.2,217.62Zm-39.54,78.44c-29.55,29.16-71.49,38.82-110.59,47.82a4.67,4.67,0,0,0-3.68,5.67c-57.28-5.28-112.74-35.55-143.46-85C10,210,9.31,134.12,48.77,82,84.43,35,150.48,11.32,207.2,30.1,274.13,52.26,313.89,120.8,327,186.64,334.77,225.34,331,267.08,301.66,296.06Z" />
        </g>
      </g>
    </g>
    <g class="masters-svg_shape-2_rotate_step-2">
      <g class="masters-svg_shape-2_scale_step-2">
        <g class="masters-svg_shape-2_scale_step-1">
          <path class="masters-svg_shape-2" d="M244.57,61.54c-52.09-35.49-123.89-36.37-175,1.72C14.12,104.56,5.11,179.09,29.4,240a6.35,6.35,0,0,0-2.47,5.07c-2,78,94,102.73,154.18,113.37,35.33,6.25,70.23,2.44,96.27-24.37,23.89-24.61,37.11-59.73,42.1-93.16C329.8,171.83,303,101.35,244.57,61.54ZM211.21,347.93c-19.53,0-38.66-4.82-57.49-9.49-18.24-4.52-36.7-9.13-53.95-16.74-25.56-11.28-50-31.46-57.18-58.67,4.95,1.34,11.16-4,7.9-9.95C22.23,201.84,20.13,131.46,62.76,87.14c38.74-40.27,103-49.75,153-26.39,56.56,26.42,91.35,84.59,92.46,146.4C309.28,265.51,281,347.92,211.21,347.93Z" />
        </g>
      </g>
    </g>
    <g class="masters-svg_shape-3_rotate_step-2">
      <g class="masters-svg_shape-3_scale_step-2">
        <g class="masters-svg_shape-3_scale_step-1">
          <path class="masters-svg_shape-3" d="M314.18,182.35c-9.82-62.89-48.42-121.79-109-145.49C149.06,14.91,79.06,32,47.71,86,6.64,156.63,46.14,237.8,80.47,301.86a6.43,6.43,0,0,0,1.31,1.67c.09.13.15.26.25.39,37.62,46.82,104.25,62.58,158.52,36.73,25.8-12.3,48-33.33,60.91-58.93C316.9,251.06,319.42,215.88,314.18,182.35ZM253.57,318.54c-51.52,36.75-122.72,25.86-162.35-23C62.57,242.09,30.67,181.23,47.53,118.8c15.3-56.66,74.37-88.17,130.71-76.87C237.52,53.81,280,103,296.32,159.42,312.78,216.2,304.57,282.17,253.57,318.54Z" />
        </g>
      </g>
    </g>
    <g class="masters-svg_shape-4_rotate_step-2">
      <g class="masters-svg_shape-4_scale_step-2">
        <g class="masters-svg_shape-4_scale_step-1">
          <path class="masters-svg_shape-4" d="M375,185.55c-1.22-34.78-5.77-73.09-24.6-103.17C333.1,54.69,303.7,37,272.28,29.78c-35.95-8.27-73.37-2.56-107.81,9.37C131.72,50.49,97.71,65.88,71.19,88.59c-13.6,11.65-24.75,26-31.31,42.71-7.54,19.27-8.61,40.46-7.79,60.93a415.67,415.67,0,0,0,28.4,134.41c2.31,5.92,10.82,4.63,11.7-.2,64.81,29.1,139.26,49,208,21.38,29.46-11.84,55.84-31.58,72.45-59C371.32,258,376.29,221,375,185.55Zm-21.8,74.82c-10.95,30-32.76,53.59-60.66,68.72C222.39,367.15,140.33,345,72.27,313.58a6,6,0,0,0-4.26-.34,405.32,405.32,0,0,1-22.51-98c-3.35-33.93-4.68-71.14,16.53-99.93,18.73-25.43,48.87-40.74,77-53.4,32.35-14.55,67.54-25.48,103.36-24.25,30.62,1,62.15,11.82,84.22,33.64,24,23.7,31.51,57.85,34.92,90.24C365,194.48,364.73,228.93,353.24,260.37Z" />
        </g>
      </g>
    </g>
    <g class="masters-svg_shape-5_rotate_step-2">
      <g class="masters-svg_shape-5_scale_step-2">
        <g class="masters-svg_shape-5_scale_step-1">
          <path class="masters-svg_shape-5" d="M340.64,79.44c-14.42-30.43-41.16-52.31-72.9-62.9-35.6-11.87-74.46-8.42-109.42,4C125.18,32.27,93.37,51.6,71.1,79.19c-21,26-31.33,58.59-32,91.77-1.7,82.21,52.7,149.79,115.76,196.28,1.55,1.15,3-1.45,1.51-2.58L154,362.88c66.65,11.78,133.11-24.24,168.35-80.41,18.78-29.93,29.36-64.6,32.74-99.66C358.38,148.25,355.69,111.19,340.64,79.44Zm-7.9,177.22c-30.91,68.27-103.51,117.67-180.06,103a1.52,1.52,0,0,0-1.72,1C99.71,321.57,54.74,268.75,44.34,203.37,39,169.71,42.7,134.05,58.61,103.59,74.33,73.52,101.18,51.07,131,35.64,192.83,3.58,280.61-.54,326.3,61.19c20.14,27.2,26.72,62.11,26.93,95.32C353.44,190.79,346.91,225.36,332.74,256.66Z" />
        </g>
      </g>
    </g>
    <g class="masters-svg_shape-6_rotate_step-2">
      <g class="masters-svg_shape-6_scale_step-2">
        <g class="masters-svg_shape-6_scale_step-1">
          <path class="masters-svg_shape-6" d="M333.5,116.41c-9.4-33.5-26.75-65.72-56.76-84.87C244,10.65,203.41,8.3,165.93,13.29c-21,2.8-41.71,7.66-62.32,12.62-17.24,4.14-34.88,8.83-50.13,18.18C20.71,64.17,12.22,102,6.85,137.43c-5.71,37.7-8.16,77.68,4.59,114.31C41.71,338.7,137.9,363.29,219.16,375a9.63,9.63,0,0,0,10.53-6.67c26.54-5.74,50.55-20.25,69.27-40.3,25.24-27,39-61.84,43.68-98.2C347.47,192.35,343.71,152.8,333.5,116.41ZM296.93,302.94c-20,27.71-51.2,48.33-85.86,50.28a8.72,8.72,0,0,0-5.29,2C144.35,345.4,77.41,328.15,41.6,273.5c-18.87-28.8-23.12-63.4-21.3-97.12a394.47,394.47,0,0,1,6.55-51.81c3-16,7-32.18,15.85-46,18.47-28.85,57.71-34,88.46-40.93,35.57-8,73.11-13.82,108.82-3.32,68.14,20,86.28,98.58,87,161.35C327.37,233.36,319.32,271.94,296.93,302.94Z" />
        </g>
      </g>
    </g>
    <g class="masters-svg_shape-7_rotate_step-2">
      <g class="masters-svg_shape-7_scale_step-2">
        <g class="masters-svg_shape-7_scale_step-1">
          <path class="masters-svg_shape-7" d="M337.24,78.11C317.15,42.84,284.8,17.22,245.63,6.35,171.54-14.19,90.21,16.68,42.91,76,19.67,105.07,4.54,139.41.82,176.62-2.75,212.42,5.5,249.22,22,281c18.79,36.11,49.37,65.33,86.92,81.18,45.71,19.3,96.56,19.21,145.07,13.69,7.35-.84,13.69-5.7,13.69-13.69,0-.12,0-.24,0-.35,59.77-29.2,95-95.64,97.59-162.37C366.92,158,357.85,114.33,337.24,78.11ZM311.53,286.83c-20,31-51.32,53.66-87.6,60.93a12.53,12.53,0,0,0-6.71,3.48C158,353.11,98.09,341.14,60.3,290.62c-38-50.78-43.58-119.55-11.82-174.73,32.45-56.36,95.58-92.49,160.9-88.13C242.88,30,275,43.83,297.47,69.07c24,26.93,36.11,64.35,39.53,99.76C341,209.68,334,252,311.53,286.83Z" />
        </g>
      </g>
    </g>
  </g>
</svg>
