<svg width="22px" height="22px" viewBox="0 0 22 22" version="1.1" xmlns="http://www.w3.org/2000/svg" xmlns:xlink="http://www.w3.org/1999/xlink" class="noshrink svg-fill">
<g transform="translate(4.000000, 5.000000)">
<path fill="#fff" d="M5.24961475,8.39956394 L2.16512063,5.35475362 C1.74038521,4.93548271 1.05017933,4.9352057 0.624646383,5.35526395 C0.199019838,5.77541456 0.198881924,6.45614266 0.624129379,6.8759191 L4.35212111,10.555948 C4.38658274,10.6034965 4.42544251,10.6488955 4.46870038,10.6915969 C4.70907746,10.9288814 5.03375662,11.0320952 5.3475228,11.0013023 C5.59592563,10.9812599 5.83876209,10.8774981 6.02880771,10.6898975 C6.06831079,10.6509027 6.10414872,10.6096632 6.13632157,10.5665961 L13.9850992,2.81879759 C14.4107939,2.39857976 14.410861,1.71746456 13.985328,1.29740632 C13.5597015,0.8772557 12.8697673,0.877449143 12.444108,1.29763217 L5.24961475,8.39956394 Z"></path>
</g>
</svg>
