<svg version="1.1" class="undergraduate-svg svg-animation" xmlns="http://www.w3.org/2000/svg" xmlns:xlink="http://www.w3.org/1999/xlink" viewBox="-50 -50 412 567" xml:space="preserve">
  <style>
    .svg-animation{animation-play-state:running;opacity:0;transition:opacity 0.2s ease-out}.svg-animation,.svg-animation.in-view{opacity:1;transition:opacity 0.3s ease-in}.svg-animation *,.svg-animation.in-view *{}[class$="step-1"]{animation-duration:2s;animation-fill-mode:forwards;animation-iteration-count:1;animation-timing-function:ease-out;will-change:transform}[class$="step-2"]{animation-delay:1s;animation-fill-mode:both;animation-timing-function:linear;will-change:transform;animation-iteration-count:infinite}.undergraduate-svg_shape-1{mix-blend-mode:multiply;fill:#E2231A}.undergraduate-svg_shape-2{mix-blend-mode:multiply;fill:#A1B1C8}@-webkit-keyframes undergraduate-svg_shape-1_scale_animation_step-1{15%{transform:translate3d(164px, 280px, 0) scale(0, 0) translate3d(-164px, -280px, 0)}100%{transform:translate3d(164px, 280px, 0) scale(1, 1) translate3d(-164px, -280px, 0)}0%{transform:translate3d(164px, 280px, 0) scale(0, 0) translate3d(-164px, -280px, 0)}}@keyframes undergraduate-svg_shape-1_scale_animation_step-1{15%{transform:translate3d(164px, 280px, 0) scale(0, 0) translate3d(-164px, -280px, 0)}100%{transform:translate3d(164px, 280px, 0) scale(1, 1) translate3d(-164px, -280px, 0)}0%{transform:translate3d(164px, 280px, 0) scale(0, 0) translate3d(-164px, -280px, 0)}}.svg-animation .undergraduate-svg_shape-1_scale_step-1,.svg-animation.in-view .undergraduate-svg_shape-1_scale_step-1{animation-name:undergraduate-svg_shape-1_scale_animation_step-1}.undergraduate-svg_shape-1_scale_step-1{animation-name:none}@-webkit-keyframes undergraduate-svg_shape-1_scale_animation_step-2{0%{transform:translate3d(164px, 146px, 0) scale(1, 1) translate3d(-164px, -146px, 0)}25%{transform:translate3d(164px, 146px, 0) scale(1.2, 1.2) translate3d(-164px, -146px, 0)}57%{transform:translate3d(164px, 146px, 0) scale(0.93, 0.93) translate3d(-164px, -146px, 0)}84%{transform:translate3d(164px, 146px, 0) scale(1.1, 1.1) translate3d(-164px, -146px, 0)}100%{transform:translate3d(164px, 146px, 0) scale(1, 1) translate3d(-164px, -146px, 0)}}@keyframes undergraduate-svg_shape-1_scale_animation_step-2{0%{transform:translate3d(164px, 146px, 0) scale(1, 1) translate3d(-164px, -146px, 0)}25%{transform:translate3d(164px, 146px, 0) scale(1.2, 1.2) translate3d(-164px, -146px, 0)}57%{transform:translate3d(164px, 146px, 0) scale(0.93, 0.93) translate3d(-164px, -146px, 0)}84%{transform:translate3d(164px, 146px, 0) scale(1.1, 1.1) translate3d(-164px, -146px, 0)}100%{transform:translate3d(164px, 146px, 0) scale(1, 1) translate3d(-164px, -146px, 0)}}.svg-animation .undergraduate-svg_shape-1_scale_step-2,.svg-animation.in-view .undergraduate-svg_shape-1_scale_step-2{animation-name:undergraduate-svg_shape-1_scale_animation_step-2}.undergraduate-svg_shape-1_scale_step-2{animation-duration:7s}.undergraduate-svg_shape-1_scale_step-2{animation-name:none}@-webkit-keyframes undergraduate-svg_shape-1_rotate_animation_step-2{0%{transform:translate3d(164px, 146px, 0) rotate(0deg) translate3d(-164px, -146px, 0)}100%{transform:translate3d(164px, 146px, 0) rotate(360deg) translate3d(-164px, -146px, 0)}}@keyframes undergraduate-svg_shape-1_rotate_animation_step-2{0%{transform:translate3d(164px, 146px, 0) rotate(0deg) translate3d(-164px, -146px, 0)}100%{transform:translate3d(164px, 146px, 0) rotate(360deg) translate3d(-164px, -146px, 0)}}.svg-animation .undergraduate-svg_shape-1_rotate_step-2,.svg-animation.in-view .undergraduate-svg_shape-1_rotate_step-2{animation-name:undergraduate-svg_shape-1_rotate_animation_step-2}.undergraduate-svg_shape-1_rotate_step-2{animation-duration:8s}.undergraduate-svg_shape-1_rotate_step-2{animation-name:none}@-webkit-keyframes undergraduate-svg_shape-1_position_animation_step-2{0%{transform:translate3d(164px, 146px, 0) translate3d(-164px, -146px, 0) translate3d(0px, 0px, 0)}13%{transform:translate3d(164px, 146px, 0) translate3d(-164px, -146px, 0) translate3d(8px, -8px, 0)}31%{transform:translate3d(164px, 146px, 0) translate3d(-164px, -146px, 0) translate3d(16px, -8px, 0)}49%{transform:translate3d(164px, 146px, 0) translate3d(-164px, -146px, 0) translate3d(24px, 0px, 0)}66%{transform:translate3d(164px, 146px, 0) translate3d(-164px, -146px, 0) translate3d(16px, 8px, 0)}82%{transform:translate3d(164px, 146px, 0) translate3d(-164px, -146px, 0) translate3d(8px, 8px, 0)}100%{transform:translate3d(164px, 146px, 0) translate3d(-164px, -146px, 0) translate3d(0px, 0px, 0)}}@keyframes undergraduate-svg_shape-1_position_animation_step-2{0%{transform:translate3d(164px, 146px, 0) translate3d(-164px, -146px, 0) translate3d(0px, 0px, 0)}13%{transform:translate3d(164px, 146px, 0) translate3d(-164px, -146px, 0) translate3d(8px, -8px, 0)}31%{transform:translate3d(164px, 146px, 0) translate3d(-164px, -146px, 0) translate3d(16px, -8px, 0)}49%{transform:translate3d(164px, 146px, 0) translate3d(-164px, -146px, 0) translate3d(24px, 0px, 0)}66%{transform:translate3d(164px, 146px, 0) translate3d(-164px, -146px, 0) translate3d(16px, 8px, 0)}82%{transform:translate3d(164px, 146px, 0) translate3d(-164px, -146px, 0) translate3d(8px, 8px, 0)}100%{transform:translate3d(164px, 146px, 0) translate3d(-164px, -146px, 0) translate3d(0px, 0px, 0)}}.svg-animation .undergraduate-svg_shape-1_position_step-2,.svg-animation.in-view .undergraduate-svg_shape-1_position_step-2{animation-name:undergraduate-svg_shape-1_position_animation_step-2}.undergraduate-svg_shape-1_position_step-2{animation-duration:8s}.undergraduate-svg_shape-1_position_step-2{animation-name:none}@-webkit-keyframes undergraduate-svg_shape-2_scale_animation_step-1{0%{transform:translate3d(150px, 149px, 0) scale(0, 0) translate3d(-150px, -149px, 0)}85%{transform:translate3d(150px, 149px, 0) scale(1, 1) translate3d(-150px, -149px, 0)}100%{transform:translate3d(150px, 149px, 0) scale(1, 1) translate3d(-150px, -149px, 0)}}@keyframes undergraduate-svg_shape-2_scale_animation_step-1{0%{transform:translate3d(150px, 149px, 0) scale(0, 0) translate3d(-150px, -149px, 0)}85%{transform:translate3d(150px, 149px, 0) scale(1, 1) translate3d(-150px, -149px, 0)}100%{transform:translate3d(150px, 149px, 0) scale(1, 1) translate3d(-150px, -149px, 0)}}.svg-animation .undergraduate-svg_shape-2_scale_step-1,.svg-animation.in-view .undergraduate-svg_shape-2_scale_step-1{animation-name:undergraduate-svg_shape-2_scale_animation_step-1}.undergraduate-svg_shape-2_scale_step-1{animation-name:none}@-webkit-keyframes undergraduate-svg_shape-2_scale_animation_step-2{0%{transform:translate3d(150px, 303px, 0) scale(1, 1) translate3d(-150px, -303px, 0)}21%{transform:translate3d(150px, 303px, 0) scale(1.15, 1.15) translate3d(-150px, -303px, 0)}47%{transform:translate3d(150px, 303px, 0) scale(0.95, 0.95) translate3d(-150px, -303px, 0)}74%{transform:translate3d(150px, 303px, 0) scale(1.1, 1.1) translate3d(-150px, -303px, 0)}94%{transform:translate3d(150px, 303px, 0) scale(1, 1) translate3d(-150px, -303px, 0)}100%{transform:translate3d(150px, 303px, 0) scale(1, 1) translate3d(-150px, -303px, 0)}}@keyframes undergraduate-svg_shape-2_scale_animation_step-2{0%{transform:translate3d(150px, 303px, 0) scale(1, 1) translate3d(-150px, -303px, 0)}21%{transform:translate3d(150px, 303px, 0) scale(1.15, 1.15) translate3d(-150px, -303px, 0)}47%{transform:translate3d(150px, 303px, 0) scale(0.95, 0.95) translate3d(-150px, -303px, 0)}74%{transform:translate3d(150px, 303px, 0) scale(1.1, 1.1) translate3d(-150px, -303px, 0)}94%{transform:translate3d(150px, 303px, 0) scale(1, 1) translate3d(-150px, -303px, 0)}100%{transform:translate3d(150px, 303px, 0) scale(1, 1) translate3d(-150px, -303px, 0)}}.svg-animation .undergraduate-svg_shape-2_scale_step-2,.svg-animation.in-view .undergraduate-svg_shape-2_scale_step-2{animation-name:undergraduate-svg_shape-2_scale_animation_step-2}.undergraduate-svg_shape-2_scale_step-2{animation-duration:8s}.undergraduate-svg_shape-2_scale_step-2{animation-name:none}@-webkit-keyframes undergraduate-svg_shape-2_rotate_animation_step-2{0%{transform:translate3d(150px, 303px, 0) rotate(0deg) translate3d(-150px, -303px, 0)}100%{transform:translate3d(150px, 303px, 0) rotate(360deg) translate3d(-150px, -303px, 0)}}@keyframes undergraduate-svg_shape-2_rotate_animation_step-2{0%{transform:translate3d(150px, 303px, 0) rotate(0deg) translate3d(-150px, -303px, 0)}100%{transform:translate3d(150px, 303px, 0) rotate(360deg) translate3d(-150px, -303px, 0)}}.svg-animation .undergraduate-svg_shape-2_rotate_step-2,.svg-animation.in-view .undergraduate-svg_shape-2_rotate_step-2{animation-name:undergraduate-svg_shape-2_rotate_animation_step-2}.undergraduate-svg_shape-2_rotate_step-2{animation-duration:8s}.undergraduate-svg_shape-2_rotate_step-2{animation-name:none}@-webkit-keyframes undergraduate-svg_shape-2_position_animation_step-2{0%{transform:translate3d(150px, 303px, 0) translate3d(-150px, -303px, 0) translate3d(0px, 0px, 0)}17%{transform:translate3d(150px, 303px, 0) translate3d(-150px, -303px, 0) translate3d(-8px, 8px, 0)}37%{transform:translate3d(150px, 303px, 0) translate3d(-150px, -303px, 0) translate3d(-16px, 8px, 0)}55%{transform:translate3d(150px, 303px, 0) translate3d(-150px, -303px, 0) translate3d(-24px, 0px, 0)}71%{transform:translate3d(150px, 303px, 0) translate3d(-150px, -303px, 0) translate3d(-16px, -8px, 0)}84%{transform:translate3d(150px, 303px, 0) translate3d(-150px, -303px, 0) translate3d(-8px, -8px, 0)}100%{transform:translate3d(150px, 303px, 0) translate3d(-150px, -303px, 0) translate3d(0px, 0px, 0)}}@keyframes undergraduate-svg_shape-2_position_animation_step-2{0%{transform:translate3d(150px, 303px, 0) translate3d(-150px, -303px, 0) translate3d(0px, 0px, 0)}17%{transform:translate3d(150px, 303px, 0) translate3d(-150px, -303px, 0) translate3d(-8px, 8px, 0)}37%{transform:translate3d(150px, 303px, 0) translate3d(-150px, -303px, 0) translate3d(-16px, 8px, 0)}55%{transform:translate3d(150px, 303px, 0) translate3d(-150px, -303px, 0) translate3d(-24px, 0px, 0)}71%{transform:translate3d(150px, 303px, 0) translate3d(-150px, -303px, 0) translate3d(-16px, -8px, 0)}84%{transform:translate3d(150px, 303px, 0) translate3d(-150px, -303px, 0) translate3d(-8px, -8px, 0)}100%{transform:translate3d(150px, 303px, 0) translate3d(-150px, -303px, 0) translate3d(0px, 0px, 0)}}.svg-animation .undergraduate-svg_shape-2_position_step-2,.svg-animation.in-view .undergraduate-svg_shape-2_position_step-2{animation-name:undergraduate-svg_shape-2_position_animation_step-2}.undergraduate-svg_shape-2_position_step-2{animation-duration:7s}.undergraduate-svg_shape-2_position_step-2{animation-name:none}

  </style>
  <g class="undergraduate-svg_shape-1_position_step-2">
    <g class="undergraduate-svg_shape-1_rotate_step-2">
      <g class="undergraduate-svg_shape-1_scale_step-2">
        <g class="undergraduate-svg_shape-1_scale_step-1">
          <path class="undergraduate-svg_shape-1" d="M299.8,136.1c-0.9-5.7-2.4-11.3-4.5-16.7c-3.7-9.4-7.5-19-13.3-27.4c-5.6-8.2-11.9-16.5-19-23.5
  	c-3.5-3.4-7.2-6.6-11-9.6c-3.3-4.2-7-8-11-11.5c-7.4-6.3-15.4-12.8-24.2-17.3s-18.3-8.6-27.9-11c-9.9-2.4-20-3.8-30.2-4
  	c-1.3,0-2.6,0-3.9,0c-7.2-1.7-14.6-2.7-22.1-2.9c-14.9-0.2-30.4,3.9-43.3,11.2c-6.2,3.5-12.3,8-17,13.3C65.9,44.4,62,50,58.7,57.4
  	c-6.1,6.4-11.4,13.6-15.8,21.2c-10.5,18.3-15.2,37.7-16.8,58.6c-0.4,5.7-0.2,11.5,0.5,17.1c1.3,10.2,2.3,20.4,5.7,30.1
  	c6.7,19.5,16.4,37,30.9,51.8c15.8,16,35.3,26.2,56.3,33.8c6.6,2.4,13.5,4.2,20.4,5.5c11.3,2.2,22.7,3.7,34.2,4.5
  	c12,0.7,23.4-0.8,35.3-2.6c11.4-1.7,21.3-6,31.8-10.7c2.9-1.3,5.8-2.9,8.4-4.7c6-4,11.8-8.5,17.1-13.4c2-1.8,3.8-3.8,5.5-5.9
  	c4.5-5.5,9.2-11.2,13-17.4c5.2-8.5,9-18,12-27.5c3.1-10,4.3-20.8,5.1-31.1C303,156.5,301.3,146.3,299.8,136.1z" />
        </g>
      </g>
    </g>
  </g>
  <g class="undergraduate-svg_shape-2_position_step-2">
    <g class="undergraduate-svg_shape-2_rotate_step-2">
      <g class="undergraduate-svg_shape-2_scale_step-2">
        <g class="undergraduate-svg_shape-2_scale_step-1">
          <path class="undergraduate-svg_shape-2" d="M287.5,271.4c-0.1-4.4-0.5-8.8-1-13.1c-1.2-9.3-2.1-19-4.5-28.2c-2.3-8.8-6.2-17.2-9.9-25.4
  	c-3.7-8.3-9.6-15.1-15.3-22.2c-5.5-7-12.8-12-20-17.3c-1.6-1.2-3.3-2.3-5.1-3.3c-1-0.5-2-1-3.1-1.5c-5.5-2.5-11.2-5.1-16.9-7
  	c-2-0.7-4.1-1.2-6.2-1.5c-6.9-1.1-14.5-2.5-21.7-2.6c-9.6,0-19.2,1.3-28.5,3.9c-0.7,0.2-1.4,0.4-2.1,0.7c-2.6,0.1-5.2,0.2-7.8,0.5
  	c-9.5,1.1-19.3,2.1-28.6,4.6c-9,2.4-17.6,6.4-26.1,10.2C77.9,174.9,66.4,183.8,56,193c-3.4,3-6.5,6.3-9.3,9.8
  	c-5.9,7.3-12.1,14.8-16.7,23.1c-4.5,8.4-8.3,17.2-11.3,26.2c-1.6,4.6-2.8,9.4-3.6,14.2c-1.5,9.5-3.1,19.3-3.2,28.9
  	c-0.1,9.9,1.6,19.7,3,29.4c0.7,4.7,1.8,9.3,3.2,13.8c0.7,2.3,1.6,4.6,2.5,6.9c2.7,6.7,5.3,13.5,8.7,19.9c0.3,0.6,0.6,1.2,1,1.8
  	c0.3,1.2,0.6,2.4,0.9,3.5c0.6,2.1,1.3,4.1,2,6.1c2.6,6.7,5.3,13.5,8.5,19.9c4.1,8.1,10.2,15.4,15.8,22.3
  	c5.9,7.3,13.8,12.8,21.3,18.3c7.8,5.8,17,9.1,25.9,12.7c4.4,1.8,8.9,3,13.6,3.8c9.4,1.5,19.3,3.3,29,2.8c7.4-0.3,14.8-1.6,22.1-2.7
  	c2.4-0.4,4.8-0.8,7.2-1.4c2.2-0.6,4.4-1.3,6.6-2.1c6.9-2.6,13.8-5.4,20.5-8.7c4.3-2.1,8.4-4.6,12.2-7.5c7.7-5.7,15.6-11.5,22.3-18.4
  	c6.6-6.8,12.3-14.6,17.9-22.3c8.8-12.2,14.8-26.7,19.9-40.7c5.7-15.5,7.7-31.7,9.7-48C287.2,293.7,287.8,282.6,287.5,271.4z" />
        </g>
      </g>
    </g>
  </g>
</svg>
